<svg width="20.7px" height="20.7px" viewBox="0 0 33 33" fill="none" xmlns="http://www.w3.org/2000/svg">
<path d="M-9.47714e-06 31.9178L0.0632138 28.3628L32.0582 28.9318L31.9949 32.4868L-9.47714e-06 31.9178ZM4.45777 26.6629C3.6579 26.6487 2.97935 26.2884 2.42212 25.5821C1.8649 24.8758 1.59498 24.0338 1.61236 23.0562L1.96009 3.50371C1.97748 2.52609 2.27717 1.69425 2.85915 1.00819C3.44114 0.322134 4.13207 -0.0137814 4.93195 0.000443791L28.201 0.414269C29.0009 0.428494 29.6794 0.788765 30.2366 1.49508C30.7939 2.2014 31.0638 3.04337 31.0464 4.02099L30.6987 23.5735C30.6813 24.5511 30.3816 25.3829 29.7996 26.069C29.2176 26.755 28.5267 27.0909 27.7268 27.0767L4.45777 26.6629ZM4.52099 23.1079L27.79 23.5217L28.1378 3.96926L4.86872 3.55544L4.52099 23.1079Z" fill="black"/>
</svg>
